<?xml version="1.0" standalone="no"?>
<!DOCTYPE svg PUBLIC "-//W3C//DTD SVG 20010904//EN"
 "http://www.w3.org/TR/2001/REC-SVG-20010904/DTD/svg10.dtd">
<svg version="1.0" xmlns="http://www.w3.org/2000/svg"
 width="80.000000pt" height="82.000000pt" viewBox="0 0 80.000000 82.000000"
 preserveAspectRatio="xMidYMid meet">

<g transform="translate(0.000000,82.000000) scale(0.100000,-0.100000)"
fill="#000000" stroke="none">
<path d="M305 772 c-45 -22 -91 -67 -77 -76 5 -3 18 4 28 16 26 29 92 58 135
58 96 0 214 -85 243 -176 7 -23 17 -21 -169 -40 -80 -8 -138 9 -188 55 l-41
38 40 14 c54 18 141 17 192 -4 49 -20 57 -5 10 20 -49 25 -170 24 -228 -3 -54
-25 -131 -95 -112 -101 7 -3 19 1 25 9 7 7 22 22 34 32 22 18 23 18 54 -13 66
-67 100 -72 342 -60 77 4 78 4 72 29 -20 77 -87 160 -160 195 -57 27 -150 30
-200 7z"/>
<path d="M83 488 c-83 -91 -101 -258 -36 -351 29 -42 97 -87 131 -87 32 0 27
17 -8 23 -37 8 -103 67 -124 111 -33 69 -15 196 38 268 l19 28 20 -33 c11 -17
35 -49 54 -71 67 -74 98 -175 77 -253 -9 -31 -25 -29 -61 9 -39 41 -69 101
-78 156 -4 24 -11 39 -17 36 -13 -8 -2 -66 24 -127 28 -63 105 -132 171 -152
59 -18 67 -18 67 -6 0 6 -21 16 -47 24 -33 9 -47 18 -44 28 2 8 6 44 9 81 5
80 -19 142 -91 228 -25 31 -50 68 -56 83 -13 33 -21 34 -48 5z"/>
<path d="M697 494 c-3 -3 -2 -17 4 -31 20 -53 13 -69 -38 -84 -76 -21 -142
-94 -183 -202 -18 -47 -39 -92 -46 -98 -66 -55 120 -68 222 -16 60 31 97 69
120 122 16 39 22 134 9 155 -15 24 -21 6 -17 -45 8 -100 -32 -166 -131 -217
-42 -21 -143 -35 -172 -25 -14 6 -14 9 -2 29 8 13 26 55 41 94 40 106 94 162
184 189 18 5 22 3 22 -16 0 -52 -26 -106 -77 -158 -29 -30 -53 -56 -53 -58 0
-2 7 -3 15 -3 22 0 90 74 113 123 28 60 35 118 22 181 -11 54 -21 72 -33 60z"/>
</g>
</svg>
